<svg fill="#000000" xmlns="http://www.w3.org/2000/svg"  viewBox="0 0 48 48" width="48px" height="48px"><path d="M 24 7 C 16.5 7 10.299609 12.7 9.5996094 20 L 9 20 C 4 20 0 24 0 29 C 0 34 4 38 9 38 L 11.800781 38 C 11.600781 37.4 11.499609 36.799609 11.599609 36.099609 L 11.699219 35 L 9 35 C 5.7 35 3 32.3 3 29 C 3 25.7 5.7 23 9 23 L 11 23 C 11.8 23 12.5 22.3 12.5 21.5 C 12.5 15.2 17.7 10 24 10 C 30.3 10 35.5 15.2 35.5 21.5 C 35.5 22.3 36.2 23 37 23 L 39 23 C 42.3 23 45 25.7 45 29 C 45 32.3 42.3 35 39 35 L 34.400391 35 C 33.700391 36.1 32.900391 37.2 31.900391 38 L 39 38 C 44 38 48 34 48 29 C 48 24 44 20 39 20 L 38.400391 20 C 37.700391 12.7 31.5 7 24 7 z M 31.849609 19.980469 A 1.50015 1.50015 0 0 0 30.404297 21.380859 L 30.306641 22.607422 C 28.681667 21.003483 26.463252 20 24 20 C 20.063636 20 16.690973 22.506921 15.482422 26.011719 A 1.50015 1.50015 0 1 0 18.318359 26.988281 C 19.109808 24.693079 21.336364 23 24 23 C 25.653152 23 27.122499 23.665528 28.201172 24.732422 L 26.619141 24.605469 A 1.50015 1.50015 0 1 0 26.380859 27.595703 L 31.380859 27.996094 A 1.50015 1.50015 0 0 0 32.996094 26.619141 L 33.394531 21.619141 A 1.50015 1.50015 0 0 0 31.849609 19.980469 z M 31.132812 29.980469 A 1.50015 1.50015 0 0 0 29.681641 31.011719 C 28.890192 33.306921 26.663636 35 24 35 C 22.346848 35 20.877501 34.334472 19.798828 33.267578 L 21.380859 33.394531 A 1.50015 1.50015 0 1 0 21.619141 30.404297 L 16.619141 30.003906 A 1.50015 1.50015 0 0 0 16.470703 30 A 1.50015 1.50015 0 0 0 15.003906 31.380859 L 14.605469 36.380859 A 1.50015 1.50015 0 1 0 17.595703 36.619141 L 17.693359 35.392578 C 19.318333 36.996517 21.536748 38 24 38 C 27.936364 38 31.309027 35.493079 32.517578 31.988281 A 1.50015 1.50015 0 0 0 31.132812 29.980469 z"/></svg>